'<svg width="15" height="15" viewBox="0 0 15 15" fill="none" xmlns="http://www.w3.org/2000/svg">
<path fill-rule="evenodd" clip-rule="evenodd" d="M2.625 2.11925V9.64391L3.86807 9.38221C4.95344 9.15371 6.08436 9.30522 7.07131 9.81135C8.45419 10.5205 10.0593 10.6616 11.5447 10.2046L13.1029 9.72512C13.3389 9.6525 13.5 9.43444 13.5 9.1875V2.8125C13.5 2.64298 13.4236 2.48251 13.2919 2.3757C13.1603 2.26889 12.9875 2.22714 12.8216 2.26206L11.0368 2.63781C9.98633 2.85897 8.8939 2.76423 7.89719 2.36554L7.52063 2.21492C6.31769 1.73374 4.99924 1.61941 3.73143 1.88631L2.625 2.11925Z" fill="url(#paint0_linear_253_424)"/>
<path d="M2.625 2.0625C2.625 1.75184 2.37316 1.5 2.0625 1.5C1.75184 1.5 1.5 1.75184 1.5 2.0625V7.5V12.9375C1.5 13.2482 1.75184 13.5 2.0625 13.5C2.37316 13.5 2.625 13.2482 2.625 12.9375V9.64391V2.11925V2.0625Z" fill="url(#paint1_linear_253_424)"/>
<defs>
<linearGradient id="paint0_linear_253_424" x1="2" y1="8" x2="14" y2="8" gradientUnits="userSpaceOnUse">
<stop stop-color="#EA3011"/>
<stop offset="1" stop-color="#FF9583"/>
</linearGradient>
<linearGradient id="paint1_linear_253_424" x1="7.5" y1="1.5" x2="7.5" y2="13.5" gradientUnits="userSpaceOnUse">
<stop stop-color="#F8A79A"/>
<stop offset="1" stop-color="#794137"/>
</linearGradient>
</defs>
</svg>
