<svg width="50" height="50" viewBox="0 0 50 50" fill="none" xmlns="http://www.w3.org/2000/svg">
<circle cx="25" cy="25" r="25" fill="#181817"/>
<path fill-rule="evenodd" clip-rule="evenodd" d="M19.375 17.5C19.375 14.3934 21.8934 11.875 25 11.875C28.1066 11.875 30.625 14.3934 30.625 17.5C30.625 20.6066 28.1066 23.125 25 23.125C21.8934 23.125 19.375 20.6066 19.375 17.5Z" fill="#45433F"/>
<path fill-rule="evenodd" clip-rule="evenodd" d="M14.6891 35.1317C14.7858 29.5195 19.365 25 25 25C30.6352 25 35.2145 29.5197 35.311 35.1321C35.3174 35.5043 35.103 35.845 34.7646 36.0003C31.7909 37.3647 28.4832 38.125 25.0004 38.125C21.5174 38.125 18.2093 37.3646 15.2354 35.9999C14.8971 35.8446 14.6827 35.5039 14.6891 35.1317Z" fill="#45433F"/>
</svg>
