<svg width="52" height="52" viewBox="0 0 52 52" fill="none" xmlns="http://www.w3.org/2000/svg">
<circle cx="26" cy="26" r="25" fill="#181817" stroke="#45433F" stroke-width="2" stroke-linecap="round" stroke-dasharray="4 7"/>
<path fill-rule="evenodd" clip-rule="evenodd" d="M20.375 18.5C20.375 15.3934 22.8934 12.875 26 12.875C29.1066 12.875 31.625 15.3934 31.625 18.5C31.625 21.6066 29.1066 24.125 26 24.125C22.8934 24.125 20.375 21.6066 20.375 18.5Z" fill="#45433F"/>
<path fill-rule="evenodd" clip-rule="evenodd" d="M15.6891 36.1317C15.7858 30.5195 20.365 26 26 26C31.6352 26 36.2145 30.5197 36.311 36.1321C36.3174 36.5043 36.103 36.845 35.7646 37.0003C32.7909 38.3647 29.4832 39.125 26.0004 39.125C22.5174 39.125 19.2093 38.3646 16.2354 36.9999C15.8971 36.8446 15.6827 36.5039 15.6891 36.1317Z" fill="#45433F"/>
</svg>
